/* XPM */
static char *_d1a7cd91f594537cb67db1408f2bdf7wHKGfhSfwC91d3LM[] = {
/* columns rows colors chars-per-pixel */
"50 50 165 2 ",
"   c #2E5658",
".  c #2D5555",
"X  c #2D5556",
"o  c #2D5557",
"O  c #2E5655",
"+  c #2F5758",
"@  c #2E5657",
"#  c #2E5659",
"$  c #2C5757",
"%  c #305658",
"&  c #305556",
"*  c #2D5559",
"=  c #2D5455",
"-  c #2B575A",
";  c #2F5859",
":  c #2B5856",
">  c #335558",
",  c #2C5658",
"<  c #2F5559",
"1  c #7B4833",
"2  c #345252",
"3  c #315454",
"4  c #325858",
"5  c #334D4C",
"6  c #2C595C",
"7  c #7E4631",
"8  c #804931",
"9  c #7C4A33",
"0  c #285655",
"q  c #854B30",
"w  c #362D21",
"e  c #6D341E",
"r  c #30575B",
"t  c #35535A",
"y  c #305359",
"u  c #76402A",
"i  c #CC8D62",
"p  c #275459",
"a  c #31423F",
"s  c #834E39",
"d  c #935A3B",
"f  c #BD7E57",
"g  c #D1956C",
"h  c #2A5253",
"j  c #7D4D35",
"k  c #2C3430",
"l  c #824A38",
"z  c #9E6444",
"x  c #A76842",
"c  c #AC6C45",
"v  c #B06F48",
"b  c #B3744D",
"n  c #D69972",
"m  c #774530",
"M  c #375555",
"N  c #384945",
"B  c #36382E",
"V  c #C28359",
"C  c #C4865B",
"Z  c #272B22",
"A  c #7E462B",
"S  c #2A3B3B",
"D  c #8B5239",
"F  c #753B22",
"G  c #936242",
"H  c #632D19",
"J  c #7A432D",
"K  c #2F4749",
"L  c #844631",
"P  c #292F2B",
"I  c #383227",
"U  c #3B514F",
"Y  c #642910",
"T  c #38433C",
"R  c #A66440",
"E  c #A16139",
"W  c #945431",
"Q  c #B07B55",
"!  c #A37151",
"~  c #97775B",
"^  c #3F2D19",
"/  c #793516",
"(  c #9E5D38",
")  c #DDAE84",
"_  c #8B5131",
"`  c #785539",
"'  c #6E3E2D",
"]  c #C19B79",
"[  c #643724",
"{  c #6E2F12",
"}  c #EAAF84",
"|  c #DBA074",
" . c #E5AA7E",
".. c #775E45",
"X. c #572110",
"o. c #E0A378",
"O. c #DD9D74",
"+. c #EED8AF",
"@. c #84834C",
"#. c #58402B",
"$. c #634C35",
"%. c #A07F60",
"&. c #C29068",
"*. c #995A31",
"=. c #BB7B4F",
"-. c #47351F",
";. c #B77850",
":. c #D2A073",
">. c #CE926A",
",. c #4A1A0A",
"<. c #B2835E",
"1. c #A67653",
"2. c #2D2719",
"3. c #584632",
"4. c #8A694D",
"5. c #54361E",
"6. c #3B3D34",
"7. c #7F3D18",
"8. c #E2B78C",
"9. c #C58A5C",
"0. c #DFA67C",
"q. c #273F41",
"w. c #B88A68",
"e. c #8D4D29",
"r. c #A56C4F",
"t. c #41372A",
"y. c #874620",
"u. c #EEB58A",
"i. c #C9875F",
"p. c #8B7457",
"a. c #69573E",
"s. c #DBA579",
"d. c #532C19",
"f. c #ECAC81",
"g. c #B7A983",
"h. c #E5A47D",
"j. c #8E9257",
"k. c #8BA04E",
"l. c #6C8036",
"z. c #B48E6D",
"x. c #22251C",
"c. c #D39968",
"v. c #D1A782",
"b. c #685333",
"n. c #DEA07A",
"m. c #C9B58F",
"M. c #9F9168",
"N. c #606A2E",
"B. c #53591D",
"V. c #D6C49C",
"C. c #687534",
"Z. c #DCCFA4",
"A. c #493B29",
"S. c #7D724C",
"D. c #44473A",
"F. c #ECC099",
"G. c #756951",
"H. c #CEBD92",
"J. c #9D9E5F",
"K. c #7C8D45",
"L. c #E7CC9E",
"P. c #32251E",
"I. c #844222",
"U. c #B69275",
"Y. c #36430F",
/* pixels */
"  +   * * * * . . . X   *   O O O . = . o   # # @ . . , , #       X % 4 > > y > O ; +     r > t t t ",
"@ @ @     * # @ . . . @ * #     @ O . . . o       O O             @ O + % & & & O $ +     % > % r 4 ",
". . . O         X . . @ # # #       @ X . . X         % < < * * * o o o @ O . = . O o o o < % + ; ; ",
". . . . @       O . . O   * *           . . . @     % r % < < # # + $ , @ $ $ . X X . X X X X , $ @ ",
". . . @     # # @ . . . @         @ X X X . . . @   # % %         + + , $ ; $ O o X . & O . O $ : ; ",
"        # * * *   . . . X o o X . . . . * o . . O O @ O . . . . X # # o o . = . o o @ + ; O $ : : : ",
"      # * * * #   X X X X X X X X X . . # # o . . X O O $ , = = . @ o @ = % 3 & + ;   ; ;   , : : : ",
"                            o     , , , o X o     X X & + , % & O O . O O + = + # r # # # < r o O : ",
"                                        + + % + O O O + = + % 4 ; + X X ; = # o X 4 @ @ 4 % % = O O ",
"                                        O % & . $ $ 6 6 - r % & 2 2 2 M 2 2 M 2 2 h = ; + ; X + + + ",
"                                          , o + ;   , - y M M 5 T B 6.D.B B k k T U 2 & - - 6 + + + ",
"                          o o o o o o o @ ; ; X & 4 4 5 a B B I $...%.U.~ ~ p.a.w I N M + p 6 + + O ",
"                            o o o o   o . O O 3 2 5 a A.A...%.%.:.u.0.c.g s.F.8.~ ..t.N M - - ; $ O ",
": $ O & % # ; 4 + & & @ $ o 4 = , , = % & M U N 6.w $.w.&.) ) &.f n O.=.E E V O. .v.` -.N , - , o % ",
": $ X & %   , , + > & X $ + = + ; * r M U T w ^ b.%.]  .| >.} n.v R i.h.O.i f c i.) w.[ I K 4 $ < r ",
"O % % & . o - 6 6 r   O $ $ h 3 > t U T 6.A.4.w.:.8.:.V V c x i o.i R x n } O.W x C i <.b.2.N & = * ",
"> > % @ . X $ , * - - 6 : $ h M U 6.I 3.%.] } f.| s.0.o.n.C v *.V u.o.E c g o.C ( 7.=.i d ^ 6.M < - ",
"t > r $ $ $ O + ; $ - : . M U B w #...] ) ) s.g b x R f n f.f.V c C O.C E *.i g r./ *.V x [ ^ N M 6 ",
"t > $ - : $ = > % & 3 2 5 B -...p.z.) u.&.=.C | n i >.b b i o.} O.E W g f y.( V V W 7.c c d 5.I 5 ; ",
"t y , : : O < t t t U T I $.1.) ) :.&.n c.i v =.| u.u.>.C x C 0. .=.7.( i.R { ( V x F e.v x [ P.N 4 ",
"- % = : : $ # < t N B #.! v.:.>.o.) ! R n  .>.f x 9. .}  .b *.f c.9.E { c f y./ E z F e z d 5.P.N ; ",
"@ ; # 0 0 O 3 5 S B ..U.0.} n c b n n i.b g } f.f E 9.} | C R y.R V f F _ Q z Y F d 8 { A 9 [ w N 6 ",
"O @ p 6 - 2 5 T a.~ v.>.;.V  .g b x >. .i c v | | v y.;.c.i f I./ v f q F D D H e s m H u s ' t.5 0 ",
". X p 6 y U 6.G.m.F.s.>.C v x :.h.b R o.0.V e.;.0.i 7./ c C f z e _ v d Y u s ' ' m u u s l [ w N ; ",
"= $ 6 * U 6.3.] 8.s.Q b n h.v f O.f.v ( n.h.c *.C i =.e.7.R ;.r.e { ( d e e 7 1 1 J 8 8 s 9 m -.T 4 ",
"- $ : > T t.] F.8.8.:.c ( i O.*.;.h.n *.E g n ( W f 9.d Y D z z F Y D D F F 7 9 9 q L 8 9 1 1.` P 5 ",
"* - . U Z ..V.+.L.) g W / v g =.W ( g b / c i x { y.1.G e F q q u H J 1 u u 7 l s 8 q L A ! ] $.x.a ",
"+ - y T t.M.+.L.g.4.G W D q n | E / ;.9.e.7.b b I.Y d z q H J s m H m j 9 7 7 7 1 1 q _ Q v.p.2.P K ",
"o * M B p.+.+.V.M.a.` s u X.r.g >.W W C v { R ;._ Y q D A e J s 7 e 9 m 1 1 1 1 J q z <.] ~ w Z q.> ",
", # 2 D.m.+.Z.j.C.B.-.d.X.,.H A x z d 1.d { A d A X.e 8 J u 1 7 7 8 8 A A A 8 _ d Q ] z.$.w k K y - ",
"< * 2 D.g.V.V.l.k.l.Y...1 F u X.F q G G _ e H m 1 ' u 7 1 1 m 1 l q q q L e.z Q &.~ $.w P a 5 y # = ",
"@ 6 2 T g.H.Z.j.K.k.C.b.j D e { Y u s s 8 7 u m 1 m 1 7 1 j 1 j s s q q G ! z.%.3.w P S K > < y = = ",
"% o % S @.Z.Z.J.@.l.l.B.[ L e e e J 7 7 L l l 7 1 8 L 8 9 j j 1 9 D z Q w.4.A.I P a 2 > & 6 - . . 3 ",
"# p 4 N G.H.L.m.j.N.k.@.u l H X.d.u 7 J L q 8 J 9 8 8 9 9 l 8 j G 1.1.4.#.w Z S 5 3 4 $ $ + @ 3 . & ",
"+ = % U B p.+.+.@.B.k.J.G H X.,.,.' m 7 L 7 1 j j 9 s j j _ d ! <.` ^ w k a 5 t @ O . . . @ @ o o o ",
"h r * t k G.+.g.N.Y.l.@.5.H { u H [ m 1 l l 9 j 9 s j D G 1.! [ d.w k N 2 3 h h . . . . o o o p p p ",
". , r K P a.m.@.C.N.C.j.#.s r.l X.X.' l l l 8 q 8 _ d 1.<.~ #.w B a 2 ; - 6 h - O . . @ o o o * * * ",
"6 - h S Z ^ M.H.@.K.K.@.5.d.e u X.X.' l 7 A L W z Q Q ` 5.I k K O & o 6 - h   = . O O       @ @ @ @ ",
"+ 6 h q.P 2.b.g.M.J.k.B.^ ,.,.H H A s s D G r.! G ` 3.w Z a 2 r 6 6 # ; % y % h O O         o = = = ",
"% O : = q.P w 3.S.S.j.N.-.#.d.[ Q &.G z <.w.` #.^ Z k q.5 3 + = * * $ ; > y r : @           o X O . ",
"4 ; + r M K k Z Z 2.A.S.$.~ <.9.o.| &.z.4.3.k P a 5 3 % % O . . . . X @     # #                 X . ",
". ; +   > 2 5 S k Z Z I t.a.~ %.1.4.` 5.2.Z a 5 3 & + X X . . . O X o         o                 X . ",
". O $ , < > > 2 5 S k x.x.x.w ^ ^ w 2.P a 5 > r o , ; . . . . . . o *       X .                 X . ",
". = O ; + o # 4 & 2 5 q.S S S k S a N 5 3 r - 6 . . $ @ @ @ X X X * *     @ . .                 X . ",
"= X O + @ # # ; ; O O + . y y y 4 O O 0 $ - p X 3 O + o o       o o         o .                 X . ",
", # X . O   o = + , - 0 $ # r # . ; ; p : 0 0 . 3 > % o       o < X X         o                 X . ",
"6 - o @ 4 + = % # * - - - + O . . + o # 0 0 - & & % % ,     o = = X X @     # *                 @ X ",
"O       O & . X & < < * # ,       o = o < o     + ; + o     . . . @                                 ",
"O       O & = 3 & & & & <     # # < < < < <   ,   + + o     . . . X X X X X X X X X X X X X X X X X ",
"O       O & . 3 3 3 3 & & @   < > > > > t >   $ $ , , o     . . . . . . . . = . . . . . . . . . . . "
};
