/* XPM */
static char *eac9abd5f2d44b4fd1554b579ccd7ce9A6hlzFXTO6GYncNi[] = {
/* columns rows colors chars-per-pixel */
"50 50 236 2 ",
"   c #693F2F",
".  c #5B452C",
"X  c #5E4B33",
"o  c #5E4633",
"O  c #5D552E",
"+  c #64442D",
"@  c #6A442D",
"#  c #664A2C",
"$  c #654533",
"%  c #6A4634",
"&  c #644A34",
"*  c #6B4B35",
"=  c #65473C",
"-  c #6C453B",
";  c #664B3B",
":  c #6C4C3C",
">  c #734B35",
",  c #724C3B",
"<  c #784C3B",
"1  c #635235",
"2  c #695133",
"3  c #655C33",
"4  c #6B503C",
"5  c #65563B",
"6  c #725235",
"7  c #74523B",
"8  c #7A543D",
"9  c #7B593E",
"0  c #785A39",
"q  c #64522E",
"w  c #6A6C2D",
"e  c #6A643A",
"r  c #6C6A3B",
"t  c #676735",
"y  c #766A3C",
"u  c #6D753B",
"i  c #697B3C",
"p  c #73783D",
"a  c #5E4B44",
"s  c #654B41",
"d  c #6B4D41",
"f  c #6A4946",
"g  c #714D43",
"h  c #6E5245",
"j  c #6C5249",
"k  c #6B5945",
"l  c #735343",
"z  c #7B5542",
"x  c #755A45",
"c  c #7D5B43",
"v  c #7E5C49",
"b  c #74594A",
"n  c #7C5C51",
"m  c #7F6244",
"M  c #7C6348",
"N  c #6D7D44",
"B  c #6A7543",
"V  c #727B42",
"C  c #767343",
"Z  c #686E40",
"A  c #736D63",
"S  c #835A3C",
"D  c #855A3B",
"F  c #81603F",
"G  c #845C45",
"H  c #8B5F47",
"J  c #835E4B",
"K  c #865A46",
"L  c #895C51",
"P  c #856144",
"I  c #8B6346",
"U  c #85614C",
"Y  c #8B644C",
"T  c #8C6A4C",
"R  c #876949",
"E  c #92654B",
"W  c #956B4C",
"Q  c #9B6D4D",
"!  c #976748",
"~  c #88774A",
"^  c #95724C",
"/  c #9C724E",
"(  c #91794D",
")  c #856453",
"_  c #8A6551",
"`  c #8D6A52",
"'  c #896759",
"]  c #946C53",
"[  c #9B6E53",
"{  c #926C59",
"}  c #9C6F5C",
"|  c #916651",
" . c #957254",
".. c #9D7354",
"X. c #9C7953",
"o. c #96725A",
"O. c #9C745A",
"+. c #9E7B5B",
"@. c #977C5F",
"#. c #A26E4E",
"$. c #A96F4A",
"%. c #A2734D",
"&. c #AA744C",
"*. c #A16F52",
"=. c #A26F5B",
"-. c #A46B54",
";. c #A27455",
":. c #A97653",
">. c #A47955",
",. c #AB7B54",
"<. c #A2745A",
"1. c #A9745B",
"2. c #A47A5B",
"3. c #AA7B5B",
"4. c #B17D5E",
"5. c #B57B55",
"6. c #997B65",
"7. c #A57B61",
"8. c #AB7C63",
"9. c #A97763",
"0. c #B97D63",
"q. c #6E813B",
"w. c #67863A",
"e. c #6C953E",
"r. c #6C9A3D",
"t. c #669E3C",
"y. c #6FA73F",
"u. c #6C8446",
"i. c #718A46",
"p. c #6C9544",
"a. c #659C45",
"s. c #6C9B43",
"d. c #6C9749",
"f. c #6B9B4A",
"g. c #679A46",
"h. c #739745",
"j. c #729D45",
"k. c #729D4B",
"l. c #789848",
"z. c #779C53",
"x. c #6DA244",
"c. c #6DAA45",
"v. c #6CA44B",
"b. c #6EAB4C",
"n. c #65A446",
"m. c #73A345",
"M. c #7AA445",
"N. c #74AA46",
"B. c #73A44B",
"V. c #7AA54C",
"C. c #76A94D",
"Z. c #75AB4C",
"A. c #7BAA4D",
"S. c #79AB46",
"D. c #6EB14B",
"F. c #72B24A",
"G. c #79B349",
"H. c #6CA552",
"J. c #74A551",
"K. c #7BA552",
"L. c #74AB51",
"P. c #7CAB51",
"I. c #7CA85A",
"U. c #7AB154",
"Y. c #819B4C",
"T. c #839855",
"R. c #AC815C",
"E. c #AD885E",
"W. c #B3845D",
"Q. c #B9865F",
"!. c #BA8C58",
"~. c #81A94C",
"^. c #80B54E",
"/. c #82AA53",
"(. c #988479",
"). c #90816D",
"_. c #AD8162",
"`. c #AD8C66",
"'. c #B38463",
"]. c #B98664",
"[. c #B58A64",
"{. c #BB8C64",
"}. c #B48B6B",
"|. c #BC8D6B",
" X c #B68769",
".X c #BE9165",
"XX c #BE926A",
"oX c #B69168",
"OX c #BD9372",
"+X c #A98F76",
"@X c #80AF61",
"#X c #CA995E",
"$X c #C28C67",
"%X c #C18969",
"&X c #C29265",
"*X c #CC9466",
"=X c #CE9A65",
"-X c #C4936C",
";X c #CB956C",
":X c #CD9B6C",
">X c #D39B66",
",X c #D29C6D",
"<X c #D99A68",
"1X c #C49573",
"2X c #CB9672",
"3X c #C69A72",
"4X c #CD9B73",
"5X c #CC9C7A",
"6X c #C69B7B",
"7X c #D29673",
"8X c #D29D73",
"9X c #D99D75",
"0X c #D99F79",
"qX c #C08D70",
"wX c #D3A16E",
"eX c #D8A06F",
"rX c #CDA175",
"tX c #CDA27B",
"yX c #D4A173",
"uX c #D9A373",
"iX c #D4A37A",
"pX c #DBA27B",
"aX c #D8A97C",
"sX c #E2A377",
"dX c #7C9B9E",
"fX c #7A9CA8",
"gX c #79A4AB",
"hX c #8E8B86",
"jX c #8C928A",
"kX c #969185",
"lX c #899B9B",
"zX c #8D8B8D",
"xX c #B39D85",
"cX c #8AA09D",
"vX c #869DA4",
"bX c #C79B82",
/* pixels */
"x.x.r.j.d.f.L.Z.A.j.s.s.x.N.N.A.F.F.c.x.a.B.j.d.d.B.P.V.v.g.a.N.V.K.M.M.P.j.r.n.d.p.p.j.B.A.B.s.f.f.",
"s.s.x.k.d.p.V.N.Z.j.j.d.V.A.V.Z.Z.U.C.B.B.k.p.p.k.B.x.B.a.g.g.B.L.J.m.c.C.k.s.g.g.p.p.k.A.P.V.s.d.d.",
"j.j.x.g.d.h.P.^.F.j.h.p.k.~.A.Z.Z.Z.B.s.B.j.s.j.e.B.b.C.j.a.H.z.I.z.A.F.v.k.j.f.p.p.d.k.B.C.B.s.p.p.",
"M.m.B.s.h.p.B.c.b.B.B.B.J./.A.Z.N.F.Z.B.C.B.s.s.l.K.B.M.~.Z.L.u 3 3 q.r.s.k.V.J.B.V.K.V.m.m.B.K.V.V.",
"S.Z.C.j.h.j.B.D.C.B.B.Z.C.V.C.b.y.c.c.c.b.B.s.s.e.z.K.M.~.F.U.w % % p s.e.j.Z.V.A././.V.x.s.B.K.V.V.",
"N.N.B.s.e.j.k.I.T.K.b.c.C.P.U.P./.P.B.C.x.x.g.d.v.K.V.V./.U.@Xt = $ N a.g.j.N.A.B.A.P.B.x.x.B.B.V.V.",
"t.x.s.B.x.k.i r e i.n.x.x.v.k.w.e t i V.x.B.s.k.g.k.k.j.u t B q 4 * u.n.d.k.x.k.B.B.V.C.Z.Z.C.V.V.C.",
"a.g.g.b.L.I.e @ . u.v.x.r.g.k.q.- & t T.j.B.s.V.k.h.p.z.2 @ ; , * @ V v.d.k.a.h.s.m.B.Z.Z.Z.Z.A.C.C.",
"a.a.g.J.B.b.t : , w.n.a.k.t.B.N = 1 w V.C.V.x.Y.x.Y.k.j.t s a & & . N H.n.B.k.k.B.D.b.L.F.G.^.v.A.A.",
"m.x.B.B.B.B.t , - i v.d.k.s.V.i.f : * y r u J.M.B.C e r # - ; D E Y M Z t r r t t r r C u r u ~.B.B.",
"Z.y.N.m.k.J.t - - u.L.B.V.S.A.q.d g , ; $ 3 I.D.v.O $ : * : 1 ^ 2.2.c & ; % * # * s : # $ f 1 M.C.C.",
"b.b.D.C.B.k.t o & i x.m.M.G.A.i.+ * : X & 3 I.G.P.3 $ & * X X R X...8 + ; % ; ; & ; & # + - 3 Z.Z.Z.",
"B.B.v.u.B u ( ....~ u p p u p C H I P M H P V V p F K P P G U } 2.......;.G : : z U P R X.#./ N V V ",
"h.l.h.1 = @ {.uXsXW + s - & + 8 8.2.<.2.1.[ X X > } 8.2.X.;.:...=...-XuXpXX.* & L 2.;._.tXsX-Xo $ $ ",
"a.s.f.5 s @ E.:XyXR . s s ; & M  .] [ ..<.[ 1 % * ] [ .. .2.;. .[ ^ oX:X8X^ # ; K  .Q 4.4X=X$X: 2 2 ",
"H.j.s.y c K 8.qX$XO.R T 0 6 * J [.W.4. .^ T 0 K m R.Q.'.{ _ Y +.'.R.XX;XpX2.8 J T `.R.%X4XwX{.* : : ",
"K.m.V.X.9.6.../ W $X9XuX>.= : T 0XyX.XH ' T >...<.4XpX#Xv a = !.0X;X0X;X8X[...o.'.rXyX,X>X=XXX: : : ",
"H.n.L.( }  ...<.X.&XuXyX..$ % ] 9X,X{.G _ Y ....:.4X,X>XD % * W.eX>X,X:XiX[.....'.yX:X:X8XiXOX@ & & ",
"T.T.T.^ :.+. .{ T R.&X{.3.I D ;.8X,X{.W ] W ....;. XXXOXD 8 G 6.{.[.[. X XR.,.:.{.:X*X2X X`.3.I m m ",
"*./ X.1.-./ 7 : : Y :.*. X4X:XuX8X,X.X[ O.[ ;.<..._ m ) / <.O.b - - : : @ ..iXyX4X,X9X'.% % 9 3X9X9X",
"<. ./ <.<.>.9 : d ` 2.[  XyX=X*X4X,X&X;.7.<.;.....` T _ %.#.>.8 = j j h $ ..iX*X:X*XpX'.$ : 9 rX:X:X",
"2.>.>. .{ ] c z 6 R o.[  X4X;X5X;X,X.X| { ] ....O.U v J o.6.6.J 6 9 4 7 7 >.8X,X:X;X5X'.8 7 I XX;X;X",
"7X8X7XH : > R 2.X.] _ P W ;...3.9X,XW.* : 9  .2.o.h s b hXlXlX6./ >. .....].4X,X{.Q [ ....O.O.;.....",
";X:X8X8 d , ` ../ { ) ` W X...R.8X8X[.% ; 7 ..;.Q 6 : % zXgXvX6.;.[ <.<.[ Q.yXeX{.[ 7.../ <.<.;.;.;.",
":X,X2XY : : ] >.3.E E ` { O...W.:X4X X< 8 8 o.+.o.z l k hXcXjX(.:.;.X./ X.'.1X4X}.<.:.:.%.<.O. .....",
"5X4X4X%.^ Q |.2X4XR...........+.>.:.,.-X4X|.<.[ &.*X*X*X2X6X5X*X4X6X2.Y U G 8 > W 4X8X-X:.O.{ , 7 7 ",
":X:X4X3.<./ &X>XrX'./ ;.>.;.O.o...W ,.pX,X;X%.*.2.3X:XpX8X;X,X,X:XiX<.J ' n : & Q iX:X$X[ ;. .: , , ",
",X8X2X7.} ..&X:X3XW./ ........<.+...'.2X2X2X>...=.-X8X3XtX,X:X3X:X8X:.H _ l & 4 E tXrX-X%.%...> : : ",
"S D G [ ..;.3.2.5.I l l Y 2.;.W R I Q 2.8.o.6 7 G :.5.%.2.,.:.[ W / X. .+.R % s z v 7 ^ &X-X-X{.{.{.",
"d ; - { <.;.Q Q $.z s s G &./  .) Y Y ....` : h 5  .[ 2.o.] o._ ) J ] ....Y : g % j : D :XpX:X:X,X,X",
"; ; : } <...o.@.6.x $ % I 2.O. .) ` Y ......, $ 6 ` +.:.;.<.2.E { _ [ <...H > : , : ; Y iX;X4XiX,X,X",
"| ] I %.%.o.(.hXhX+X{.Q. .b l S 6 8 H O.O.2._.[.0.G x 0 / O.O./  . ...2.<.W T  .H * & J 8.,.,.H U U ",
"1.+. ...<.} jXgXfXxX<XpXO.& d g d ; 8 +...,.8XyX4X7 ; : ] 2.....;.;...;...>...2.Y : : z <.! { s ; ; ",
"-./ ....<.<.kXlXlXxX<X,X..+ : % : % 8 O...,.4X,X$X7 ; * W :.....[ [ [ [ [ ;.[ <.Y % % c 2.3. .& : : ",
"%X{.$X1.<...).(.).oX>XuXR.P | Y _ Y ] 2...:.4X:X;X| ) Y W.[.[.[.|.|.|.|.].|.[.{.'.:.R...9 c m c c c ",
"iX:X8X3.....o.6. .[.,XyX{...>.O.2.O.O.O.[ 3.4X,X7X2.O.X.:X4X8X8X:X8X8X4X,XyX,XyXyXeXaX X% ; l _ ` ` ",
":X:X8X2.o.X.X.1.#.$X8X8XQ.Q ....../ ..[ [ 3.4X:X2X<. .%.:X8X4X,X:X:X:X*X,X,X:XyX:X>X>XW.% s : H J J ",
":X:X8X..` W  .;.#.|.4X,X]...O.3.W.W.].].].{.4X:X;X>.O.;.Q. X].;X8X8X8X8X8X].[ ..'.8X8X-X..O...W.R.R.",
"8X:X;X| U I  .;.*.|.4X>XQ...O.W.iX9X8XyX8X4X8X,X;XX.O...;.[ / &X4X4X:X:X4X[ $ $ E 2X4XyX8XpX8XyXwXwX",
"9X8X8X] ' H o.O.[ |.:X>X{.o. .W.0X9X*X,X8X8X,XyX4X....<.;.O...-XpXyX,X,XaXX.% s ! aX:X=X,X<X9X4X8X8X",
"[.'.'.W I Y ..<. .[.9X,X]...[ 3.[.W.[.{.|.|.2.3.3.].W.W.;.<...2.3.4.3.3.3.Y * : T |.{.{.'. X'.|.{.{.",
"U Y Y Y _ Y ] ....{.,X,X].....W U J Y *.[ W % $ , 1XuX4X2.[ ..7 = ; & = : s : : G 2.Q Q I J Y [ / / ",
"U ) J ' ' Y O.3.;.{.,X8X'...7...) _ | 7.2.o.: ; j 4X>X;X7.Q 2.l - ; : h : ; : $ z O...O.' ) { O.;.;.",
"[ O.O._ J v ` [ ] '.-X-X_...O.W ......Y Y Y 9 7 b ;X<X:X2.;...Y Y I 8 > > < G 8 I ;.;. .x M Y ..O.O.",
"yX8X3XS % : J ` ) U I G W ..;.'.wX:X[.* : z O.;.3.;X>X8X2.o...2XrXrX .* ; U 7.=.;.X.;.T & : 6 ..;.;.",
"=X,XiXS % : J _ ' ) ) U ..<.Q '.>X8X}.$ : l <.*.&.4X4X4X;.2.<.{.<X9XW $ s ) >.:.2.[ <.| : : 7 2.....",
"-X-XOXc : : J ` U _ ` Y ] ../ _.2X1X_.8 z c O.<.:.-X4X1X3.Q ..+X6XbX` : l c T W [ 3.3.[ < 7 z o.;.;.",
"Y Y _ g : : J E E ]  .o...;.;.....<.....;.......o.Q ;.] ;.&...kXdXlXA ; * , l = ^ 4X8X&X......X.O.O.",
"Y Y ) 7 : : U _ U ] ;.;...O...;...............;...;.O.;...<.O.jXvXvXA * , : : : ] 8X8X&XO.;.<.......",
"Y Y ) 7 : : U _ U ] ;.;...O...;...............;...;.O.;...<.O.jXvXvXA * , : : : ] 8X8X&XO.;.<......."
};
