/* XPM */
static char *_7cbcc3ce58a4055e748686db47c4b02E3IQGRlGHBGdrQWT[] = {
/* columns rows colors chars-per-pixel */
"50 50 104 2 ",
"   c black",
".  c #080505",
"X  c #E7E8ED",
"o  c #E4E5EA",
"O  c #E1E3E9",
"+  c #0B0A0A",
"@  c #86282B",
"#  c #8C282C",
"$  c #242225",
"%  c #1E1D1E",
"&  c #201915",
"*  c #3A2A22",
"=  c #B58368",
"-  c #8C2A2E",
";  c #932B2F",
":  c #DEE0E6",
">  c #EBEBF0",
",  c #040303",
"<  c #CE9676",
"1  c #B37357",
"2  c #752327",
"3  c #B68871",
"4  c #523C32",
"5  c #411618",
"6  c #82262A",
"7  c #D29B7B",
"8  c #2A2829",
"9  c #D7DAE0",
"0  c #CBCBD3",
"q  c #D0D3DB",
"w  c #581D20",
"e  c #7A2428",
"r  c #100F10",
"t  c #7E2529",
"y  c #B8B6BC",
"u  c #CCCED7",
"i  c #BBBBC3",
"p  c #C7C8CF",
"a  c #191719",
"s  c #6E4D3D",
"d  c #C3886A",
"f  c #371415",
"g  c #8F2B2F",
"h  c #6E1F23",
"j  c #BB8063",
"k  c #D4D6DE",
"l  c #44322B",
"z  c #DBDDE3",
"x  c #785041",
"c  c #323239",
"v  c #151418",
"b  c #541A1E",
"n  c #9D2C33",
"m  c #A17A62",
"M  c #C18264",
"N  c #64493A",
"B  c #631D20",
"V  c #362930",
"C  c #6A2327",
"Z  c #982B31",
"A  c #727073",
"S  c #AA6B4F",
"D  c #3C3D3F",
"F  c #B39B94",
"G  c #AEABAE",
"H  c #A4806F",
"J  c #C68D6F",
"K  c #C4C2C9",
"L  c #9D755E",
"P  c #90624D",
"I  c #634235",
"U  c #765745",
"Y  c #A06E56",
"T  c #381F25",
"R  c #642428",
"E  c #592226",
"W  c #935B63",
"Q  c #83666C",
"!  c #9C666B",
"~  c #BAA199",
"^  c #BFA39A",
"/  c #B3978E",
"(  c #BA7B5E",
")  c #9D8B89",
"_  c #B58D7B",
"`  c #5D3F30",
"'  c #7F8185",
"]  c #61453A",
"[  c #A4755A",
"{  c #942E30",
"}  c #C6ADA6",
"|  c #888B8F",
" . c #AB9187",
".. c #7E7B7F",
"X. c #625754",
"o. c #835742",
"O. c #845A49",
"+. c #84716A",
"@. c #4A1B1C",
"#. c #D4B8A9",
"$. c #D5BCB1",
"%. c #B99C94",
"&. c #8D5448",
"*. c #624031",
/* pixels */
"                                                                                                    ",
"                                                                                                    ",
"                                                                                                    ",
"                                        + r r + + + + + + +                                         ",
"                                      r $ $ $ % % $ % % $ a ,                                       ",
"                                    . % 8 $ 8 % a % % % $ a ,                                       ",
"                                    . % $ & 8 & a % & $ 8 v ,                                       ",
"                                    . % $ * x x 4 4 s x 4 a ,                                       ",
"                                    . a 4 o.1 d 3 3 d ( P l .                                       ",
"                                    . 8 x P N N L = U N o.` .                                       ",
"                                    . 4 Y = +.4 [ = 4 X.L *..                                       ",
"                                    . 4 Y = < [ j d Y _ J I .                                       ",
"                                    . ` O.O.= [ U U P = Y l ,                                       ",
"                            , + + . r s ] l x N s s I s ] & . , . .                                 ",
"                            8 ' | ' ' ) ..X.l * I I l 4 A A A ..| A a                               ",
"                          , D p : k u K y G +.l * l ] ) y i p q : y 8                               ",
"                            D p > O 9 0 p q K / H ) } q q p k : X y 8                               ",
"                            D i : z q 0 k O O : 9 z o : z 0 u 9 o G $                               ",
"                            D y 9 u i i k X > X X o X X O K i 0 9 G $                               ",
"                            l ~ $.} / F p : X > > X o X 9 G  .^ #. .%                               ",
"                            * 3 7 d ( 3 y u : X X O O : 0 / 1 M < m &                               ",
"                            * = < J M _ y u : o o : O z 0 F j d < L &                               ",
"                            * = < < M _ i q : o O O X O q ~ j J 7 m &                               ",
"                            * = < d 1 H i k O o O X > O q F 1 j < m &                               ",
"                            * 3 7 d 1 = K : > > X X X O q F 1 M 7 H &                               ",
"                            * 3 7 J 1 3 0 o > > X o X o 9 ~ 1 d 7 H &                               ",
"                            * = < M 1 3 p O > o O O o : k ^ 1 ( < m &                               ",
"                            * = < ( S 3 i 9 O o X O : 9 u ^ S 1 7 m &                               ",
"                            * = 7 j S 3 y 0 u k z 9 u p K %.S j 7 L &                               ",
"                            & s P U s &.! ! ! Q Q Q W W W x *.N s 4 +                               ",
"                              . . . + b ; Z # C E E e Z ; 5 . , , ,                                 ",
"                                    . b n n ; t 2 2 @ n Z 5                                         ",
"                                    . w Z n # t e 6 # ; - 5                                         ",
"                                    . w - # # 6 h t # # t f                                         ",
"                                    . w - @ # 6 B 2 # # 6 f                                         ",
"                                    . b - - @ e w h @ # - 5                                         ",
"                                    . b - ; - e B h # ; g 5                                         ",
"                                    . w g ; ; 6 h 2 - ; g 5                                         ",
"                                    . E { g g 6 2 e @ g - 5                                         ",
"                                    . w @ @ 6 6 2 t t @ @ 5                                         ",
"                                    . b @ e 2 6 2 t t t e f                                         ",
"                                    . w @ # # @ h e g Z @ f                                         ",
"                                    . w g ; ; t h e ; { - 5                                         ",
"                                    . @.2 C C C B B R R R f                                         ",
"                                    , f T V V T 5 T V c V r                                         ",
"                                    , v $ c c $ a % c c 8 r                                         ",
"                                      . r v v r + + r r + .                                         ",
"                                                                                                    ",
"                                                                                                    ",
"                                                                                                    "
};
