/* XPM */
static char *c657b9f1be314d1fa4563b504633309320nUUJf98y2zoQVv[] = {
/* columns rows colors chars-per-pixel */
"50 50 120 2 ",
"   c #0E100D",
".  c #0E1511",
"X  c #131615",
"o  c #131915",
"O  c #161D1B",
"+  c #1A1E1C",
"@  c #1D221E",
"#  c #1F2522",
"$  c #222624",
"%  c #242925",
"&  c #262C29",
"*  c #2A2D2A",
"=  c #2D322E",
"-  c #2E3330",
";  c #323633",
":  c #343936",
">  c #323738",
",  c #363B39",
"<  c #3A3E3B",
"1  c #3D413E",
"2  c #40423F",
"3  c #3F4441",
"4  c #3F4946",
"5  c #424643",
"6  c #454946",
"7  c #484B47",
"8  c #444648",
"9  c #464C49",
"0  c #4A4E4B",
"q  c #4D514D",
"w  c #50534F",
"e  c #4E5452",
"r  c #525653",
"t  c #545955",
"y  c #565C59",
"u  c #595E5A",
"i  c #5A5F5B",
"p  c #595D59",
"a  c #5C5E5B",
"s  c #595D5A",
"d  c #57605D",
"f  c #58605D",
"g  c #5B605C",
"h  c #5A615C",
"j  c #5B625D",
"k  c #5A615E",
"l  c #5D605C",
"z  c #5C615D",
"x  c #5E615D",
"c  c #5C635F",
"v  c #5D635F",
"b  c #5F625F",
"n  c #5C615D",
"m  c #60655F",
"M  c #5D6560",
"N  c #5F6460",
"B  c #5E6661",
"V  c #5E6563",
"C  c #5F6762",
"Z  c #5E6561",
"A  c #5E6862",
"S  c #606360",
"D  c #616461",
"F  c #636562",
"G  c #616662",
"H  c #626763",
"J  c #646763",
"K  c #616663",
"L  c #636864",
"P  c #626964",
"I  c #636A66",
"U  c #656864",
"Y  c #666966",
"T  c #646A66",
"R  c #676A67",
"E  c #646C67",
"W  c #636965",
"Q  c #656D68",
"!  c #666E69",
"~  c #666D69",
"^  c #686B68",
"/  c #6A6C69",
"(  c #6B6D6A",
")  c #696E6A",
"_  c #6A6F6B",
"`  c #6C6F6B",
"'  c #6A6D6A",
"]  c #66706A",
"[  c #6D706D",
"{  c #6E716E",
"}  c #6F726F",
"|  c #6C726E",
" . c #6E7570",
".. c #717370",
"X. c #727471",
"o. c #717672",
"O. c #737672",
"+. c #717672",
"@. c #757875",
"#. c #767976",
"$. c #757976",
"%. c #787A77",
"&. c #777C78",
"*. c #767D79",
"=. c #797B78",
"-. c #787D79",
";. c #797F7B",
":. c #7B7E7B",
">. c #7C7F7C",
",. c #7A7F7D",
"<. c #76807B",
"1. c #79817C",
"2. c #80827F",
"3. c #838683",
"4. c #808883",
"5. c #848986",
"6. c #878D8A",
"7. c #8E908D",
"8. c #88928C",
"9. c #8E9490",
/* pixels */
"= y y y b b p y t r w w + D R w D b y r r t a S ; ; q < 7 p t < q w r w 0 + r J r r r r < : 5 y r 1 ",
"J 7.>.J [ [ [ ( ( R R R , 2.3.[ O...[ [ @.R ^ :.r 0 R q 0 t t 0 t t r r ( = 2.@.O.O.O.O.O.[ ` [ =.r ",
"=.O.p R b b b b a a a a & [ O.b b b S D ` p t R 0 5 t 1 < 2 5 5 5 5 5 5 t & %.J y y y y J D p q S , ",
"D [ a b b b b b S S D D @ R ^ r t p S R R D b y r 6 t < 0 6 5 5 6 6 6 6 5 * J p a a a a t S b r b 0 ",
"p } a p t t y p p a b b & y a b p p p p a a b b 7 < t 6 0 6 5 2 2 5 5 5 6 : D D J J J J p p p p b 0 ",
"r [ b a t t t t y p p p * p b b p p p p a a b b 7 < t 6 q 0 6 5 5 5 5 5 5 : S D D D S b b a p p b 0 ",
"0 ( D J t t t r t r r r & y a b p p p p p p f f 7 < t 6 r q 0 7 6 6 6 6 5 : B B D D S b b a p p b 0 ",
"6 R J ( t t r r r w q q & y a p p p p p p p f f 7 < t 6 t r q 0 0 0 0 0 5 : b b S S b b b a p p b 0 ",
"0 R b b p p y t t r r r & p f p t t t t r q t D q < r 1 9 q q q q 0 0 0 q & q b b b b f a p p p p 6 ",
"r [ R R S S b b a p p p - p b L p p p p p r t b 6 1 q 5 6 9 q q q 9 9 9 6 ; p t b b b f p p y y y 0 ",
"0 ^ b S p p p y t t r r ; q r R L L L L E f y B < 1 6 6 3 8 9 0 0 9 9 9 r 3 L B ( ( ( ( b b b b J r ",
"< y q w 0 0 0 7 6 5 5 5 % , 1 p e e e e r 9 3 8 = : 1 8 1 3 6 9 9 9 9 9 9 $ 9 y p p p p 0 0 0 0 r < ",
"  @ ; 1 * * * * = * % # + O & , = = % $ + + @ & % O # $ o * = o . O # & # @ # ; : ; = * & $ $ $ $ $ ",
"w w w r w q q 0 9 9 e t - y f r y f B L 5 q t q : 1 &.O.( :.:.( 8 q b Q 4.; 9 B D B p t t t t r r r ",
"r q 0 7 0 0 0 7 5 5 0 e % V y q q q t y r q e b - p 9.b ( p p ( Q L B f 1., y 8 9 6 1 1 1 1 1 1 9 9 ",
"5 6 0 0 0 0 0 0 q 0 5 3 % f 8 e t r q q 6 q r r - r ( y p L L p b b B B L ; 9 8 9 6 1 1 5 5 5 5 6 0 ",
"0 r 6 0 0 0 9 q 9 5 9 e $ e t t t r e q q q q q & 6 ..t b b b b b b b b b < e 3 5 5 5 5 5 5 5 5 0 1 ",
"5 0 1 5 0 0 0 q 9 5 9 e $ e t t t r e q q q q q * 5 [ p b b b b b b b b b ; 9 3 5 5 5 5 5 5 5 5 5 5 ",
"5 0 1 5 0 0 q 0 9 5 9 e $ e t t t r e q q q q q = < R b b b b b b b b b B & 1 3 5 5 5 8 9 5 5 5 0 t ",
"0 r 6 q 0 0 0 5 9 5 9 e $ e t t t r e e q q q q ; , J J b b b b b b b b B # : 3 5 8 8 6 9 9 5 5 5 r ",
"2 w 5 5 0 0 0 9 9 9 9 9 # y 9 e e r t e q q q q 6 5 a r q r a b y y y y e ; 9 < 6 6 6 6 9 9 5 3 3 3 ",
"2 w 5 5 0 0 9 9 9 9 9 9 = t 0 9 9 q e e q q q q 5 1 b t r t y p f b b b 6 * 0 0 6 6 9 9 9 9 5 3 8 8 ",
"2 q 5 5 0 0 9 8 9 9 9 9 & q e 9 9 9 9 q q q q q q 5 p 0 p y t t y p p p q % 6 q 9 9 9 0 0 9 5 3 5 5 ",
"2 q 5 5 0 9 8 9 9 9 9 9 O 4 f t e 0 9 9 q q q q = : R ( b p r q 0 0 0 0 b & 1 6 9 9 9 0 0 9 5 3 t t ",
"$ & $ + * & & & - - # @ o O & - $ = = & = = * % o & * , ; & $ $ # * * # $ + @ o & & & * * * = * ; , ",
"* 0 p ; < < : < 1 8 9 4 # e 9 d B q 8 q y q 5 3 : = q 5 w 0 q q 0 3 3 0 1 + , q 6 6 6 6 6 6 6 6 5 & ",
"t @.r t p y t p f t E  .= 8.<.| <.E f L  .Q O.6.R q &.f p b l p y q q y  .; t L b b b b p p p p O.t ",
"1 y 7 0 0 0 6 0 e q q A - ] f t t M A f | y f &.e 5 y 8 0 0 7 5 3 0 0 3 9 + t p q q q q 9 6 6 6 t S ",
"6 r q w q q q q 9 q q f - Q f y B B B B B B H H e 1 y r r 0 7 5 3 3 3 3 6 $ b 0 q 0 0 0 0 q q q y t ",
"6 r q w w w q q r e q q ; f f f B B B B B B H H q , r q r 0 7 5 3 3 3 3 8 * p q q 0 0 0 0 q q q 0 0 ",
"6 r 0 q w w q q r e q 9 ; e t y B B B B B B H H 6 ; q 9 r 0 7 5 3 3 3 3 3 - r q q 0 0 0 0 q q q 0 6 ",
"7 t 0 q w w q q 0 q e t & 9 t y B B B B B B B B 8 = 0 6 r 0 7 5 3 5 3 3 1 : q e q 0 0 0 q q q q q 0 ",
"q t q q e e e e t q q e = y B f B B B B V V D D 9 , q 3 3 5 9 0 9 6 5 1 0 : r q r r q q q q q q 0 5 ",
"q t q q e e e e t y e 5 ; B Q L V V V V V V V V 6 , e 5 5 9 0 q 0 9 6 5 t - 9 q t t r r q q e r q 5 ",
"q t q q e e e e q t r 9 & t f y f f f f i i i i 3 : r 9 9 0 e e q q 9 6 r - q r p p p t 0 0 r t r 0 ",
"q y q q e e e e 6 6 e B - b L B y y y y p y y y 3 > r 0 0 q r t r q q 9 1 ; y p f b f p 0 0 r p t 0 ",
"= b e 6 0 0 0 0 y i i t o D f r f y e e 0 e r 9 , * 6 5 e q 9 9 6 6 6 6 1 & 6 q 6 q e r 0 q q 6 0 5 ",
"& = ; = - - - - 3 - & - $ * , % o X @ - - + * = O $ - & $ $ & * % & & % $ + @ & * = = = - ; ; = * @ ",
"1 t D t y y y y i L D t - 6.&.D 5 e L *.[ f E :.5 : p R r t p p b B B b L * R O.@.@.O.[ ( | [ Q w 6 ",
"e r : 1 5 5 5 5 < 3 9 t > @.f _ ,.5.,.L L O.L 5.b 8 O.r p y t r q q q q O.= O.R L D p t p f b p R p ",
"6 6 , 1 5 5 5 5 3 3 5 e < | r t y y y y b R b @.q 6 p q q e t r y t q 0 b : t b f p t q t p b f t < ",
"0 9 1 3 5 3 5 5 3 3 3 0 > Q r y t t t t b D f [ 6 5 p q 0 q q e y t e q q & D D p p y r t p b f O.a ",
"q q 3 8 5 5 5 5 5 3 1 5 - L t i y y y y f D p H 1 1 t q q 0 0 q r r e q 1 $ O.b y f p t t p b f J r ",
"r q 3 6 3 5 5 5 5 3 3 3 & L y f p p p p b m t b , , t q q q q q q q q q 9 @ R p t p p y t p b f ^ t ",
"0 q 5 0 q q 0 0 9 9 9 9 $ e L i t t t t B p p D : 1 r 7 0 0 0 0 0 q q q 0 - t y y p p y t t t t a t ",
"0 0 5 0 0 0 9 9 9 9 9 9 $ e L p y y y y b t t b 1 5 r 6 0 0 0 0 0 q q q 0 - t y y p p y t t t t a 5 ",
"0 0 5 0 5 5 6 6 8 8 9 9 $ e L p f f f f p r r p 5 0 q 5 0 0 0 0 0 q q q 0 - t y y p p y t t t t J 7 ",
"0 0 5 0 3 3 5 5 8 8 9 9 $ e L p V V b b y q q y 0 7 q 5 0 0 0 0 0 q q q 0 - t y y p p y t t t t w 0 ",
"i V e 9 e e e e 3 e y e O 3 M V r 9 0 r y y y y 5 < r r w w w w a t r t < + y y y y y y y t r 0 r 5 ",
"< 5 , > > > > > , < > $ O + % < - $ % - ; ; ; ; $ o - = * * * * , ; * ; & X * , ; , , ; ; ; - * - + "
};
